<svg xmlns="http://www.w3.org/2000/svg" xmlns:xlink="http://www.w3.org/1999/xlink" width="143.007" height="152" viewBox="0 0 143.007 152"><defs><style>.a{fill:#aa1800;}.b{fill:url(#a);}.c{fill:url(#b);}.d{fill:#fa4614;opacity:0.3;}.e{fill:url(#c);}.f{fill:url(#d);}.g{fill:#fff;}.h{fill:#fad6ae;}</style><linearGradient id="a" x1="0.501" y1="0.685" x2="0.468" y2="-1.579" gradientUnits="objectBoundingBox"><stop offset="0" stop-color="#fadfbb"/><stop offset="1" stop-color="#ff7b29"/></linearGradient><linearGradient id="b" y1="0.5" x2="1" y2="0.5" gradientUnits="objectBoundingBox"><stop offset="0" stop-color="#fa4616"/><stop offset="1" stop-color="#ff7d00"/></linearGradient><linearGradient id="c" x1="0.509" y1="0.016" x2="0.496" y2="0.745" xlink:href="#b"/><linearGradient id="d" x1="0.5" y1="1.002" x2="0.609" y2="0.155" xlink:href="#b"/></defs><rect class="a" width="143.002" height="92.394" transform="translate(0.005 59.606)"/><g transform="translate(19.107)"><path class="b" d="M171.9,253.679V350.4H65.463V223.06h75.814v30.619Z" transform="translate(-65.463 -223.06)"/><path class="c" d="M158.166,253.679H127.547V223.06Z" transform="translate(-51.733 -223.06)"/><rect class="d" width="65.096" height="4.008" transform="translate(18.959 72.42)"/><rect class="d" width="65.096" height="4.008" transform="translate(18.959 56.206)"/><rect class="d" width="65.096" height="4.008" transform="translate(18.959 39.992)"/></g><path class="e" d="M192.777,280.4v81.985H50.022V280.594l71.248,56.338Z" transform="translate(-49.77 -210.381)"/><path class="f" d="M121.319,308.16l71.5,48.081H49.815Z" transform="translate(-49.815 -204.241)"/><circle class="g" cx="21.68" cy="21.68" r="21.68" transform="translate(50.643 89.327)"/><g transform="translate(60.391 101.975)"><path class="h" d="M108.16,326.386,99.27,317.5l3.5-3.5,5.386,5.385,12.809-12.808,3.5,3.5Z" transform="translate(-99.27 -306.568)"/></g></svg>