<svg xmlns="http://www.w3.org/2000/svg" width="106.882" height="16.107" viewBox="0 0 106.882 16.107">
  <g id="Group_10602" data-name="Group 10602" transform="translate(-110.556 -85.316)">
    <g id="Grupo_863-2" data-name="Grupo 863-2" transform="translate(110.556 85.316)">
      <g id="Caminho_209" data-name="Caminho 209" transform="translate(0 0.291)">
        <path id="Path_610" data-name="Path 610" d="M124.027,85.615v15.811h-1.594v-7.12h-10.28v7.12h-1.6V85.615h1.594v7.1h10.279v-7.1Z" transform="translate(-110.556 -85.615)"/>
      </g>
      <g id="Caminho_210" data-name="Caminho 210" transform="translate(20.272 0.27)">
        <path id="Path_611" data-name="Path 611" d="M132.986,87.207v5.485h9.833v1.594h-9.833v5.506H143.46v1.594H132.322a.908.908,0,0,1-.931-.886V86.522a.923.923,0,0,1,.914-.929h11.157v1.595H132.986Z" transform="translate(-131.391 -85.593)"/>
      </g>
      <g id="Caminho_211" data-name="Caminho 211" transform="translate(36.997)">
        <path id="Path_612" data-name="Path 612" d="M161.655,101.4l-5.594-13.247L150.379,101.4h-1.8l6.638-15.5a.956.956,0,0,1,.844-.578.932.932,0,0,1,.844.574l6.569,15.5Z" transform="translate(-148.58 -85.316)"/>
      </g>
      <g id="Caminho_212" data-name="Caminho 212" transform="translate(56.519 0.269)">
        <path id="Path_613" data-name="Path 613" d="M182.536,93.51a7.912,7.912,0,0,1-7.924,7.9h-5.059a.913.913,0,0,1-.91-.907V86.477a.879.879,0,0,1,.873-.884H174.5a7.97,7.97,0,0,1,8.033,7.906v.012Zm-1.62,0a6.3,6.3,0,0,0-6.3-6.3h-4.355v12.6H174.5a6.316,6.316,0,0,0,6.413-6.218h0Z" transform="translate(-168.644 -85.593)"/>
      </g>
      <g id="Caminho_213" data-name="Caminho 213" transform="translate(75.912 0.27)">
        <path id="Path_614" data-name="Path 614" d="M190.167,87.207v5.485H200v1.594h-9.834v5.506h10.475v1.594H189.506a.909.909,0,0,1-.931-.886V86.522a.923.923,0,0,1,.914-.929h11.157v1.595H190.167Z" transform="translate(-188.575 -85.593)"/>
      </g>
      <g id="Caminho_214" data-name="Caminho 214" transform="translate(94.366 0.27)">
        <path id="Path_615" data-name="Path 615" d="M214.109,95.522h-4.974v5.908h-1.594V86.522a.924.924,0,0,1,.913-.929h6.5A5.085,5.085,0,0,1,219.99,90.7a4.77,4.77,0,0,1-4.1,4.71l4.172,5.97h-1.846Zm-4.974-1.548h5.815a3.321,3.321,0,0,0,3.44-3.2V90.7a3.48,3.48,0,0,0-3.44-3.495h-5.815Z" transform="translate(-207.541 -85.593)"/>
      </g>
    </g>
  </g>
</svg>
