<svg xmlns="http://www.w3.org/2000/svg" fill="#fff" width="164" height="17.543" viewBox="0 0 164 17.543"><g transform="translate(-110.556 -85.316)"><g transform="translate(110.556 85.316)"><g transform="translate(0 0.317)"><path d="M125.214,85.615v17.2H123.48V95.071H112.294v7.748h-1.738v-17.2h1.734v7.724h11.184V85.615Z" transform="translate(-110.556 -85.615)"/></g><g transform="translate(22.058 0.293)"><path d="M133.126,87.349v5.968h10.7v1.734h-10.7v5.991h11.4v1.734H132.4a.988.988,0,0,1-1.013-.964V86.6a1,1,0,0,1,.994-1.011h12.14v1.735h-11.4Z" transform="translate(-131.391 -85.593)"/></g><g transform="translate(40.256)"><path d="M162.807,102.813,156.72,88.4l-6.183,14.414H148.58L155.8,85.945a1.04,1.04,0,0,1,.918-.629,1.014,1.014,0,0,1,.918.625l7.147,16.868Z" transform="translate(-148.58 -85.316)"/></g><g transform="translate(61.498 0.293)"><path d="M183.76,94.208a8.609,8.609,0,0,1-8.622,8.591h-5.5a.994.994,0,0,1-.99-.987V86.555a.956.956,0,0,1,.95-.962h5.426a8.672,8.672,0,0,1,8.741,8.6v.013Zm-1.763,0a6.854,6.854,0,0,0-6.853-6.856h-4.739v13.71h4.613A6.873,6.873,0,0,0,182,94.3h0Z" transform="translate(-168.644 -85.593)"/></g><g transform="translate(82.599 0.293)"><path d="M190.307,87.349v5.968h10.7v1.734h-10.7v5.991h11.4v1.734H189.588a.989.989,0,0,1-1.013-.964V86.6a1,1,0,0,1,.994-1.011h12.14v1.735h-11.4Z" transform="translate(-188.575 -85.593)"/></g><g transform="translate(102.679 0.293)"><path d="M214.687,96.4h-5.412v6.428h-1.734V86.6a1,1,0,0,1,.993-1.011h7.071a5.533,5.533,0,0,1,5.481,5.559,5.19,5.19,0,0,1-4.466,5.125l4.54,6.5h-2.008Zm-5.412-1.684H215.6a3.614,3.614,0,0,0,3.743-3.482v-.078a3.787,3.787,0,0,0-3.743-3.8h-6.327Z" transform="translate(-207.541 -85.593)"/></g></g><g transform="translate(243.517 85.598)"><path d="M231,102.844V85.582h6.89a8.049,8.049,0,0,1,6.167,2.336,8.677,8.677,0,0,1,2.242,6.307,8.59,8.59,0,0,1-2.266,6.307,8.372,8.372,0,0,1-6.26,2.313Zm3.854-3.714h3.084a3.888,3.888,0,0,0,3.223-1.4,5.426,5.426,0,0,0,1.145-3.528,5.317,5.317,0,0,0-1.145-3.5,3.888,3.888,0,0,0-3.223-1.4h-3.084Z" transform="translate(-231.002 -85.582)"/><path d="M245.472,102.844l5.442-8.713-5.045-8.549h4.461l3.083,5.629,3.27-5.629h4.508l-5.349,8.549,5.3,8.713h-4.461l-3.317-5.793-3.387,5.793Z" transform="translate(-230.153 -85.582)"/></g></g></svg>
