<?xml version="1.0" standalone="no"?>
<!DOCTYPE svg PUBLIC "-//W3C//DTD SVG 20010904//EN"
 "http://www.w3.org/TR/2001/REC-SVG-20010904/DTD/svg10.dtd">
<svg version="1.0" xmlns="http://www.w3.org/2000/svg"
 width="162.000000pt" height="170.000000pt" viewBox="0 0 162.000000 170.000000"
 preserveAspectRatio="xMidYMid meet">

<g transform="translate(0.000000,170.000000) scale(0.100000,-0.100000)"
fill="#000000" stroke="none">
<path d="M1070 1506 l0 -156 98 0 98 0 -1 60 -1 59 -89 93 c-49 51 -93 95 -97
96 -5 2 -8 -66 -8 -152z"/>
<path d="M40 530 l0 -500 766 0 c507 0 763 3 759 10 -3 6 -12 10 -18 10 -7 0
-24 6 -38 14 -15 7 -58 24 -95 36 -38 13 -73 26 -79 30 -5 4 -28 13 -50 20
-22 7 -45 16 -51 21 -6 5 -19 10 -30 12 -10 2 -32 9 -47 15 -16 7 -31 12 -33
12 -3 0 -25 9 -50 20 -24 11 -58 23 -74 27 -17 3 -30 10 -30 15 0 4 -14 1 -32
-8 -48 -25 -136 -29 -195 -10 -51 17 -109 68 -135 119 l-15 29 -271 -181 -272
-181 0 254 0 254 118 -4 c64 -3 167 -6 228 -8 61 -1 117 -6 125 -11 28 -15
-15 21 -143 124 l-128 102 0 139 0 140 -105 0 -105 0 0 -500z"/>
<path d="M1400 898 l0 -133 -145 -115 c-80 -63 -145 -117 -145 -120 0 -3 33
-6 73 -7 146 -3 233 -9 244 -16 6 -4 14 -3 18 3 4 6 11 7 17 4 6 -4 27 -8 47
-9 63 -4 66 -6 72 -65 3 -30 6 90 7 268 l2 322 -95 0 -95 0 0 -132z"/>
</g>
</svg>
